# xmcd CD database file generated by LOLA_Freedb v0.9beta0
# 
# Track frame offsets:
#      150
#      19955
#      42719
#      65611
#      95668
#      117468
#      142018
#      166785
#      190722
#      213512
#      232315
#      260745
#      284831
#      305690
#      327029
# 
# Disc length: 4562 seconds
# 
# Revision: 0 
# Processed by: cddbd v1.5.1PL0 Copyright (c) Steve Scherf et al.
# Submitted via: LOLA_Freedb v0.9beta0
# 
DISCID=f511d00f
DTITLE=Kenny G - Breathless
DYEAR=1992
DGENRE=
TTITLE0=Kenny G - The Joy Of Life
TTITLE1=Kenny G - Forever In Love
TTITLE2=Kenny G - In The Rain
TTITLE3=Kenny G - Sentimental
TTITLE4=Kenny G - By The Time This Night Is Over
TTITLE5=Kenny G - End Of The Night
TTITLE6=Kenny G - Alone
TTITLE7=Kenny G - Morning
TTITLE8=Kenny G - Even If My Heart Would Break
TTITLE9=Kenny G - G-Bop
TTITLE10=Kenny G - Sister Rose
TTITLE11=Kenny G - A Year Ago
TTITLE12=Kenny G - Homeland
TTITLE13=Kenny G - Jasmin Flower
TTITLE14=Kenny G - The Wedding Song
EXTD=
EXTT0=
EXTT1=
EXTT2=
EXTT3=
EXTT4=
EXTT5=
EXTT6=
EXTT7=
EXTT8=
EXTT9=
EXTT10=
EXTT11=
EXTT12=
EXTT13=
EXTT14=
PLAYORDER=
